<mxfile host="app.diagrams.net" modified="2023-08-07T14:05:36.033Z" agent="Mozilla/5.0 (Macintosh; Intel Mac OS X 10_15_7) AppleWebKit/537.36 (KHTML, like Gecko) Chrome/115.0.0.0 Safari/537.36" etag="syFxmGtuO43pfroVYPnY" version="21.6.6" type="github">
  <diagram name="第 1 页" id="xfPMHSN2pqAAnrB9GJBP">
    <mxGraphModel dx="1396" dy="893" grid="1" gridSize="10" guides="1" tooltips="1" connect="1" arrows="1" fold="1" page="1" pageScale="1" pageWidth="827" pageHeight="1169" math="0" shadow="0">
      <root>
        <mxCell id="0" />
        <mxCell id="1" parent="0" />
        <mxCell id="DXMq6NsEl37ua_WnOo-x-3" value="" style="edgeStyle=orthogonalEdgeStyle;rounded=0;orthogonalLoop=1;jettySize=auto;html=1;" parent="1" source="DXMq6NsEl37ua_WnOo-x-1" target="DXMq6NsEl37ua_WnOo-x-2" edge="1">
          <mxGeometry relative="1" as="geometry" />
        </mxCell>
        <mxCell id="DXMq6NsEl37ua_WnOo-x-1" value="62797活动规则" style="rounded=0;whiteSpace=wrap;html=1;" parent="1" vertex="1">
          <mxGeometry x="20" y="225" width="90" height="30" as="geometry" />
        </mxCell>
        <mxCell id="DXMq6NsEl37ua_WnOo-x-5" value="" style="edgeStyle=orthogonalEdgeStyle;rounded=0;orthogonalLoop=1;jettySize=auto;html=1;" parent="1" source="DXMq6NsEl37ua_WnOo-x-2" target="DXMq6NsEl37ua_WnOo-x-4" edge="1">
          <mxGeometry relative="1" as="geometry" />
        </mxCell>
        <mxCell id="DXMq6NsEl37ua_WnOo-x-2" value="选择器Selector&lt;br&gt;（过滤活动时间状态）" style="rounded=0;whiteSpace=wrap;html=1;" parent="1" vertex="1">
          <mxGeometry x="190" y="215" width="160" height="50" as="geometry" />
        </mxCell>
        <mxCell id="DXMq6NsEl37ua_WnOo-x-16" value="" style="edgeStyle=orthogonalEdgeStyle;rounded=0;orthogonalLoop=1;jettySize=auto;html=1;" parent="1" source="DXMq6NsEl37ua_WnOo-x-4" target="DXMq6NsEl37ua_WnOo-x-15" edge="1">
          <mxGeometry relative="1" as="geometry" />
        </mxCell>
        <mxCell id="DXMq6NsEl37ua_WnOo-x-4" value="" style="rounded=0;whiteSpace=wrap;html=1;" parent="1" vertex="1">
          <mxGeometry x="430" y="200" width="440" height="80" as="geometry" />
        </mxCell>
        <mxCell id="DXMq6NsEl37ua_WnOo-x-6" value="gameTypeFilter" style="rounded=0;whiteSpace=wrap;html=1;" parent="1" vertex="1">
          <mxGeometry x="510" y="240" width="110" height="30" as="geometry" />
        </mxCell>
        <mxCell id="DXMq6NsEl37ua_WnOo-x-10" value="" style="edgeStyle=orthogonalEdgeStyle;rounded=0;orthogonalLoop=1;jettySize=auto;html=1;" parent="1" source="DXMq6NsEl37ua_WnOo-x-8" target="DXMq6NsEl37ua_WnOo-x-9" edge="1">
          <mxGeometry relative="1" as="geometry" />
        </mxCell>
        <mxCell id="DXMq6NsEl37ua_WnOo-x-8" value="familyMemberFilter" style="rounded=0;whiteSpace=wrap;html=1;" parent="1" vertex="1">
          <mxGeometry x="630" y="240" width="110" height="30" as="geometry" />
        </mxCell>
        <mxCell id="DXMq6NsEl37ua_WnOo-x-9" value="业务基础数据" style="rounded=0;whiteSpace=wrap;html=1;" parent="1" vertex="1">
          <mxGeometry x="640" y="350" width="110" height="30" as="geometry" />
        </mxCell>
        <mxCell id="DXMq6NsEl37ua_WnOo-x-12" style="edgeStyle=orthogonalEdgeStyle;rounded=0;orthogonalLoop=1;jettySize=auto;html=1;entryX=1;entryY=0.5;entryDx=0;entryDy=0;" parent="1" source="DXMq6NsEl37ua_WnOo-x-11" target="DXMq6NsEl37ua_WnOo-x-9" edge="1">
          <mxGeometry relative="1" as="geometry" />
        </mxCell>
        <mxCell id="DXMq6NsEl37ua_WnOo-x-11" value="totalPumpRateFilter" style="rounded=0;whiteSpace=wrap;html=1;" parent="1" vertex="1">
          <mxGeometry x="750" y="240" width="110" height="30" as="geometry" />
        </mxCell>
        <mxCell id="DXMq6NsEl37ua_WnOo-x-14" value="过滤器Filter" style="text;strokeColor=none;align=center;fillColor=none;html=1;verticalAlign=middle;whiteSpace=wrap;rounded=0;" parent="1" vertex="1">
          <mxGeometry x="430" y="200" width="70" height="30" as="geometry" />
        </mxCell>
        <mxCell id="DXMq6NsEl37ua_WnOo-x-15" value="" style="rounded=0;whiteSpace=wrap;html=1;" parent="1" vertex="1">
          <mxGeometry x="950" y="210" width="190" height="60" as="geometry" />
        </mxCell>
        <mxCell id="bJ_L35j2yNwk2mRAnb4k-1" value="执行器Handler" style="text;strokeColor=none;align=center;fillColor=none;html=1;verticalAlign=middle;whiteSpace=wrap;rounded=0;" vertex="1" parent="1">
          <mxGeometry x="950" y="210" width="90" height="30" as="geometry" />
        </mxCell>
        <mxCell id="bJ_L35j2yNwk2mRAnb4k-2" value="dailyBet" style="rounded=0;whiteSpace=wrap;html=1;" vertex="1" parent="1">
          <mxGeometry x="1010" y="235" width="115" height="30" as="geometry" />
        </mxCell>
      </root>
    </mxGraphModel>
  </diagram>
</mxfile>
